<svg width="58" height="58" viewBox="0 0 58 58" fill="none" xmlns="http://www.w3.org/2000/svg">
<path fill-rule="evenodd" clip-rule="evenodd" d="M0 10.3695C0 4.91872 4.47714 0.5 9.99997 0.5H47.9998C53.5227 0.5 57.9998 4.91872 57.9998 10.3695V42.2666C57.9998 47.9058 50.7695 50.353 47.2628 45.901L36.2999 31.9825V48.8604C36.2999 53.7662 32.2705 57.743 27.3 57.743H9.99997C4.47714 57.743 0 53.3242 0 47.8735V10.3695ZM9.99997 8.39559C8.8954 8.39559 7.99998 9.27933 7.99998 10.3695V47.8735C7.99998 48.9636 8.8954 49.8474 9.99997 49.8474H27.6C28.1522 49.8474 28.2999 49.4055 28.2999 48.8604V26.2271C28.2999 20.588 35.5302 18.1405 39.037 22.5927L49.9998 36.5112V10.3695C49.9998 9.27933 50.1044 8.39559 48.9999 8.39559H9.99997Z" fill="white"/>
<path d="M48 0.5C53.5229 0.5 58 4.91872 58 10.3695V42.2666C58 47.9058 50.7697 50.353 47.263 45.901L36.3001 31.9825V48.8604C36.3001 53.7662 32.2707 57.743 27.3002 57.743C27.8525 57.743 28.3001 57.3012 28.3001 56.7561V26.2271C28.3001 20.588 35.5304 18.1405 39.0372 22.5927L50 36.5112V2.47389C50 1.38374 49.1047 0.5 48 0.5Z" fill="white"/>
</svg>
